#!OML:ASF E:\Style4\Style4.ASF
:FULLY-SPECIFIED
:DEGREES
714
root 0.348778 16.9716 -0.813491 7.66535 -4.63924 4.38614
lowerback 8.58321 1.12309 0.036508
upperback 0.307353 1.34097 -3.35852
thorax -4.41585 0.62964 -3.68359
lowerneck 4.28906 -3.20393 -7.01637
upperneck -1.38022 -4.53262 4.90789
head -0.895045 -2.30086 2.88076
rclavicle -1.30701e-014 1.03368e-014
rhumerus -4.33603 68.9791 4.42145
rradius 63.2359
rwrist 16.7146
rhand -19.3602 43.2491
rfingers 7.12502
rthumb 6.95744 13.3834
lclavicle -1.30701e-014 1.03368e-014
lhumerus -37.9569 -1.50139 51.2427
lradius 58.7509
lwrist 42.933
lhand -0.619189 21.9634
lfingers 7.12502
lthumb 24.9972 50.348
rfemur -31.5742 5.07749 11.7416
rtibia 52.3298
rfoot -26.4518 -13.9202
rtoes -15.9457
lfemur -28.2792 1.11149 -25.2286
ltibia 49.1374
lfoot -27.7237 8.84851
ltoes -15.7778
715
root 0.34916 16.9682 -0.812179 7.67892 -4.61203 4.35835
lowerback 8.56949 1.12243 0.0670135
upperback 0.318702 1.34532 -3.32271
thorax -4.39613 0.631855 -3.66307
lowerneck 4.31277 -3.18548 -7.07853
upperneck -1.43517 -4.51079 4.96033
head -0.916017 -2.29014 2.91162
rclavicle 7.50412e-015 1.07344e-014
rhumerus -5.22476 69.5575 3.1656
rradius 63.6319
rwrist 16.2527
rhand -19.5007 43.2284
rfingers 7.12502
rthumb 6.82178 13.3583
lclavicle 7.50412e-015 1.07344e-014
lhumerus -38.039 -1.60141 51.3977
lradius 58.8247
lwrist 43.0089
lhand -0.669124 22.0756
lfingers 7.12502
lthumb 24.9493 50.4668
rfemur -31.5921 5.053 11.7731
rtibia 52.3612
rfoot -26.4878 -13.923
rtoes -15.9332
lfemur -28.317 1.12145 -25.1985
ltibia 49.1812
lfoot -27.7311 8.85278
ltoes -15.9851
716
root 0.349628 16.9659 -0.810518 7.69823 -4.55035 4.41243
lowerback 8.55729 1.13109 0.0605139
upperback 0.315722 1.35578 -3.33715
thorax -4.39156 0.637089 -3.67549
lowerneck 4.43427 -3.19062 -7.12152
upperneck -1.55815 -4.52393 5.04238
head -0.973651 -2.2979 2.95349
rclavicle -2.8128e-014 -7.55382e-015
rhumerus -6.47405 70.0639 1.56603
rradius 64.041
rwrist 15.8702
rhand -19.6264 43.2262
rfingers 7.12502
rthumb 6.70052 13.3522
lclavicle -2.8128e-014 -7.55382e-015
lhumerus -38.0778 -1.74969 51.5258
lradius 58.8501
lwrist 43.0638
lhand -0.753869 21.9631
lfingers 7.12502
lthumb 24.8681 50.3656
rfemur -31.6144 5.00513 11.7137
rtibia 52.4017
rfoot -26.5547 -13.8545
rtoes -15.8509
lfemur -28.3576 1.10516 -25.2604
ltibia 49.2104
lfoot -27.7314 8.90698
ltoes -16.4603
717
root 0.349591 16.9648 -0.808251 7.73136 -4.48559 4.43439
lowerback 8.58248 1.13428 0.0930721
upperback 0.279076 1.36134 -3.34813
thorax -4.44258 0.638199 -3.70786
lowerneck 4.4911 -3.2034 -7.15619
upperneck -1.5897 -4.54496 5.09205
head -0.990782 -2.30931 2.97932
rclavicle 4.37326e-015 -6.95746e-015
rhumerus -7.85108 70.5614 -0.15283
rradius 64.5036
rwrist 15.5991
rhand -19.6313 43.1389
rfingers 7.12502
rthumb 6.69577 13.2648
lclavicle 4.37326e-015 -6.95746e-015
lhumerus -38.1944 -1.90559 51.653
lradius 58.942
lwrist 43.1307
lhand -0.755518 21.9302
lfingers 7.12502
lthumb 24.8665 50.3329
rfemur -31.6401 4.95691 11.6962
rtibia 52.4501
rfoot -26.5859 -13.8844
rtoes -15.8248
lfemur -28.3991 1.07485 -25.2893
ltibia 49.2404
lfoot -27.6906 8.9702
ltoes -16.812
718
root 0.34952 16.9639 -0.805243 7.71942 -4.43562 4.43268
lowerback 8.63071 1.13279 0.126588
upperback 0.282028 1.36232 -3.33873
thorax -4.46594 0.637821 -3.71856
lowerneck 4.37894 -3.23339 -7.19978
upperneck -1.50493 -4.58085 5.12447
head -0.939711 -2.32712 2.9939
rclavicle -1.93815e-015 1.76918e-014
rhumerus -9.19825 70.9914 -1.87655
rradius 64.9188
rwrist 15.5228
rhand -19.8511 43.0635
rfingers 7.12502
rthumb 6.48352 13.1828
lclavicle -1.93815e-015 1.76918e-014
lhumerus -38.2927 -1.93725 51.7892
lradius 59.0939
lwrist 43.2749
lhand -0.903794 22.0085
lfingers 7.12502
lthumb 24.7244 50.4308
rfemur -31.6245 4.91341 11.7058
rtibia 52.5004
rfoot -26.6001 -13.8844
rtoes -15.7424
lfemur -28.3816 1.02417 -25.2824
ltibia 49.2626
lfoot -27.6964 8.95347
ltoes -16.7915
719
root 0.348425 16.9612 -0.802568 7.69981 -4.38101 4.47124
lowerback 8.62745 1.12253 0.0769723
upperback 0.316149 1.34562 -3.31874
thorax -4.43117 0.631448 -3.66647
lowerneck 4.29328 -3.24546 -7.2021
upperneck -1.46656 -4.59207 5.12706
head -0.911356 -2.33221 2.99209
rclavicle 2.04251e-014 2.38542e-015
rhumerus -10.503 71.3161 -3.59677
rradius 65.2606
rwrist 15.5763
rhand -20.0385 43.141
rfingers 7.12502
rthumb 6.30269 13.2548
lclavicle 2.04251e-014 2.38542e-015
lhumerus -38.3707 -1.89904 51.9252
lradius 59.2035
lwrist 43.3181
lhand -0.962328 21.9497
lfingers 7.12502
lthumb 24.6683 50.3796
rfemur -31.6111 4.84238 11.6773
rtibia 52.557
rfoot -26.6649 -13.8656
rtoes -15.7723
lfemur -28.372 0.967779 -25.3134
ltibia 49.2913
lfoot -27.7122 8.93318
ltoes -16.6481
720
root 0.346256 16.9575 -0.79945 7.6901 -4.32653 4.44984
lowerback 8.61227 1.11573 0.055033
upperback 0.34151 1.33753 -3.27136
thorax -4.39825 0.62893 -3.60223
lowerneck 4.28754 -3.26397 -7.16908
upperneck -1.4962 -4.61483 5.09102
head -0.919722 -2.34287 2.97433
rclavicle -4.96962e-016 1.78906e-015
rhumerus -11.8057 71.6396 -5.31667
rradius 65.6311
rwrist 15.4781
rhand -19.8349 43.3155
rfingers 7.12502
rthumb 6.49921 13.4352
lclavicle -4.96962e-016 1.78906e-015
lhumerus -38.3882 -1.92615 52.0669
lradius 59.1607
lwrist 43.2978
lhand -0.929559 21.8014
lfingers 7.12502
lthumb 24.6997 50.2271
rfemur -31.586 4.80727 11.7194
rtibia 52.6024
rfoot -26.7236 -13.913
rtoes -15.7389
lfemur -28.3676 0.915528 -25.2739
ltibia 49.3295
lfoot -27.748 8.95467
ltoes -16.7578
721
root 0.344561 16.9543 -0.795344 7.72182 -4.29335 4.46605
lowerback 8.54874 1.11785 0.0138281
upperback 0.341454 1.33854 -3.24934
thorax -4.36404 0.630886 -3.55393
lowerneck 4.35358 -3.29321 -7.11541
upperneck -1.56448 -4.655 5.04635
head -0.952639 -2.36262 2.95284
rclavicle 8.59744e-015 -3.77691e-015
rhumerus -13.0871 71.9709 -7.01503
rradius 66.0258
rwrist 15.2683
rhand -19.2979 43.6265
rfingers 7.12502
rthumb 7.01764 13.7629
lclavicle 8.59744e-015 -3.77691e-015
lhumerus -38.3592 -1.93129 52.1838
lradius 59.042
lwrist 43.2035
lhand -0.692438 21.683
lfingers 7.12502
lthumb 24.927 50.0774
rfemur -31.6301 4.78573 11.7053
rtibia 52.6408
rfoot -26.7336 -13.9473
rtoes -15.8269
lfemur -28.4096 0.853203 -25.2846
ltibia 49.3688
lfoot -27.7982 8.9802
ltoes -16.7023
722
root 0.343501 16.9518 -0.792352 7.74516 -4.25793 4.45433
lowerback 8.52178 1.12342 0.0182293
upperback 0.338038 1.34807 -3.22241
thorax -4.35241 0.635905 -3.52857
lowerneck 4.46254 -3.31999 -7.09818
upperneck -1.69035 -4.69456 5.049
head -1.01004 -2.38253 2.95673
rclavicle -1.08835e-014 -7.15625e-015
rhumerus -14.3728 72.3868 -8.73645
rradius 66.364
rwrist 15.1201
rhand -19.0641 43.5991
rfingers 7.12502
rthumb 7.24327 13.7431
lclavicle -1.08835e-014 -7.15625e-015
lhumerus -38.3743 -1.91755 52.3018
lradius 58.9824
lwrist 43.1399
lhand -0.368545 21.5801
lfingers 7.12502
lthumb 25.2373 49.9311
rfemur -31.6537 4.75925 11.727
rtibia 52.6623
rfoot -26.6901 -14.0596
rtoes -16.0822
lfemur -28.4461 0.823888 -25.2669
ltibia 49.4086
lfoot -27.8465 8.94051
ltoes -16.5487
723
root 0.342297 16.9518 -0.789356 7.76597 -4.21684 4.41739
lowerback 8.52602 1.13935 0.0593491
upperback 0.332187 1.37482 -3.18507
thorax -4.35917 0.648591 -3.51615
lowerneck 4.47348 -3.35824 -7.07508
upperneck -1.73787 -4.7448 5.02211
head -1.02493 -2.407 2.94518
rclavicle -1.44119e-015 1.49089e-014
rhumerus -15.8961 72.8381 -10.6925
rradius 66.6732
rwrist 15.0797
rhand -19.5043 43.1677
rfingers 7.12502
rthumb 6.81834 13.2975
lclavicle -1.44119e-015 1.49089e-014
lhumerus -38.4105 -1.96033 52.458
lradius 59.0213
lwrist 43.1002
lhand -0.552816 21.7725
lfingers 7.12502
lthumb 25.0608 50.1482
rfemur -31.6466 4.75595 11.7713
rtibia 52.6778
rfoot -26.7441 -14.0375
rtoes -15.8031
lfemur -28.4694 0.785967 -25.2223
ltibia 49.4374
lfoot -27.8689 8.92953
ltoes -16.52
724
root 0.34147 16.9518 -0.786145 7.76359 -4.18921 4.41248
lowerback 8.54264 1.16173 0.0546433
upperback 0.332986 1.40571 -3.14526
thorax -4.36685 0.664296 -3.47594
lowerneck 4.46423 -3.38971 -7.10274
upperneck -1.74182 -4.78776 5.01873
head -1.02119 -2.42808 2.94945
rclavicle -2.60408e-014 1.19271e-015
rhumerus -17.5212 73.2116 -12.721
rradius 67.0295
rwrist 14.8959
rhand -19.8667 42.9308
rfingers 7.12502
rthumb 6.46854 13.0496
lclavicle -2.60408e-014 1.19271e-015
lhumerus -38.4677 -1.93841 52.6343
lradius 59.1013
lwrist 43.0349
lhand -0.956718 21.9945
lfingers 7.12502
lthumb 24.6737 50.4238
rfemur -31.6219 4.7369 11.7831
rtibia 52.6914
rfoot -26.8258 -13.9361
rtoes -15.5326
lfemur -28.4554 0.764382 -25.2164
ltibia 49.4505
lfoot -27.9018 8.97859
ltoes -16.5141
